<?xml version="1.0" encoding="utf-8"?>
<!-- Generator: Adobe Illustrator 16.0.3, SVG Export Plug-In . SVG Version: 6.00 Build 0)  -->
<!DOCTYPE svg PUBLIC "-//W3C//DTD SVG 1.1//EN" "http://www.w3.org/Graphics/SVG/1.1/DTD/svg11.dtd">
<svg version="1.1" id="Capa_1" xmlns="http://www.w3.org/2000/svg" xmlns:xlink="http://www.w3.org/1999/xlink" x="0px" y="0px"
	 width="1280px" height="800px" viewBox="0 0 1280 800" enable-background="new 0 0 1280 800" xml:space="preserve">
<g>
	<g>
		<path fill="#4FB8FF" d="M219.554,527.728c-3.563-0.235-10.743-0.898-14.146-1.976c-4.01-1.273-11.272-5.807-14.569-8.421
			c-4.193-3.33-11.808-11.197-15.352-14.893c-3.138-3.269-8.864-9.891-11.371-13.671c-1.866-2.803-3.962-9.2-4.463-12.525
			c-1.824-12.117,0-49.01,0-49.01s-13.932,11.082-16.337,16.334c-2.143,4.681-1.84,22.628-1.596,30.174
			c0.108,3.37,5.731,25.979,8.097,29.035c6.254,8.084,13.254,15.725,15.908,18.826c3.926,4.583,12.821,12.847,17.691,16.408
			c4.435,3.247,14.471,8.2,19.803,9.518c6.492,1.605,26.733,0.991,26.733,0.991v21.288c0,0-61.779,2.438-82.181,0
			c-10.22-1.222-30.545-5.654-40.013-9.701c-6.955-2.976-20.143-10.654-26.095-15.324c-7.296-5.724-21.305-18.12-26.964-25.468
			c-6.732-8.746-20.157-26.247-24.629-36.337c-3.68-8.31-10.023-20.432-10.023-35.946V258.91c0,0,58.334-26.791,79.211-30.696
			c12.652-2.364,38.943-2.883,51.485,0c20.876,4.8,79.209,32.675,79.209,32.675v267.333
			C229.951,528.222,222.149,527.9,219.554,527.728z M40.838,273.76v93.073c0,0,14.188,13.817,19.679,17.452
			c8.48,5.621,26.929,14.424,36.884,16.382c13.483,2.653,41.485,3.967,54.827,0.818c8.569-2.025,25.051-9.182,32.179-14.357
			c6.728-4.885,23.765-23.27,23.765-23.27V273.76c0,0-19.187,1.503-25.249,3.465c-4.002,1.297-11.519,5.36-14.853,7.923
			c-5.831,4.484-17.259,14.145-21.289,20.296c-2.706,4.135-5.933,13.495-7.83,18.029c-2.46,5.875-8.194,23.746-8.194,23.746
			l-6.25,23.572l-11.883-39.604c0,0-3.34-14.394-5.446-18.813c-2.332-4.897-8.681-13.847-12.378-17.822
			c-3.535-3.803-10.864-11.407-15.419-13.89c-3.732-2.033-12.07-4.255-16.263-4.92C57.594,274.865,40.838,273.76,40.838,273.76z"/>
		<path fill="#4FB8FF" d="M92.779,331.473c0,7.899-6.407,14.301-14.301,14.301c-7.895,0-14.3-6.402-14.3-14.301
			c0-7.895,6.405-14.301,14.3-14.301C86.372,317.172,92.779,323.578,92.779,331.473z"/>
		<path fill="#4FB8FF" d="M186.668,331.473c0,7.899-6.406,14.301-14.301,14.301s-14.301-6.402-14.301-14.301
			c0-7.895,6.406-14.301,14.301-14.301S186.668,323.578,186.668,331.473z"/>
	</g>
	<g>
		<g>
			<path d="M559.494,311.349c-0.901,0-1.734-0.224-2.496-0.678c-0.766-0.45-1.632-1.057-2.602-1.821l-0.208-0.104
				c-1.318-1.316-3.017-2.773-5.099-4.369c-2.08-1.597-4.406-3.086-6.972-4.476c-2.566-1.385-5.324-2.565-8.27-3.538
				c-2.95-0.971-5.95-1.456-9.001-1.456c-3.885,0-7.32,0.433-10.301,1.301c-2.984,0.868-5.479,2.046-7.492,3.538
				s-3.536,3.243-4.578,5.254c-1.04,2.013-1.561,4.162-1.561,6.45c0,2.498,0.78,4.682,2.341,6.555
				c1.561,1.875,3.677,3.538,6.348,4.996c2.669,1.457,5.739,2.792,9.208,4.004c3.469,1.216,7.109,2.41,10.925,3.591
				c4.371,1.318,8.704,2.74,13.005,4.265c4.301,1.525,8.411,3.243,12.331,5.151c3.917,1.908,7.578,4.023,10.976,6.347
				c3.398,2.325,6.329,4.995,8.793,8.012c2.46,3.017,4.404,6.381,5.827,10.093c1.42,3.711,2.132,7.891,2.132,12.536
				c0,7.562-1.525,14.396-4.578,20.498c-3.053,6.107-7.266,11.327-12.641,15.661c-5.376,4.336-11.691,7.665-18.938,9.987
				c-7.248,2.324-15.035,3.485-23.357,3.485c-5.343,0-10.649-0.623-15.919-1.872c-5.272-1.249-10.337-3.017-15.191-5.306
				c-4.856-2.289-9.452-5.046-13.787-8.272c-4.335-3.227-8.204-6.848-11.602-10.873v0.104l-0.207-0.417
				c-1.527-1.732-2.289-3.328-2.289-4.786c0-0.762,0.207-1.49,0.624-2.185c0.417-0.692,1.04-1.456,1.873-2.289l3.436-3.433
				c1.04-0.902,2.148-1.908,3.328-3.017c1.179-1.109,2.358-2.115,3.538-3.019c1.178-0.899,2.27-1.663,3.276-2.289
				c1.004-0.624,1.823-0.936,2.445-0.936c0.971,0,1.873,0.312,2.706,0.936c0.833,0.625,1.525,1.215,2.081,1.77l0.417,0.416h-0.105
				c2.427,2.289,5.151,4.474,8.168,6.555c3.016,2.08,6.119,3.938,9.312,5.567c3.189,1.63,6.363,2.912,9.52,3.85
				c3.157,0.935,6.122,1.404,8.896,1.404c3.814,0,7.388-0.486,10.718-1.458c3.329-0.969,6.208-2.339,8.635-4.109
				c2.429-1.768,4.335-3.902,5.724-6.398c1.387-2.499,2.079-5.271,2.079-8.325c0-3.052-0.901-5.67-2.705-7.856
				c-1.803-2.184-4.162-4.091-7.076-5.722c-2.913-1.63-6.189-3.035-9.832-4.214c-3.643-1.178-7.302-2.289-10.978-3.331
				c-8.463-2.565-15.867-5.34-22.215-8.323c-6.345-2.981-11.636-6.329-15.867-10.041c-4.23-3.709-7.404-7.871-9.52-12.486
				c-2.117-4.611-3.173-9.795-3.173-15.555c0-6.45,1.301-12.329,3.902-17.636c2.6-5.308,6.295-9.848,11.081-13.63
				c4.786-3.78,10.544-6.729,17.272-8.844c6.727-2.115,14.254-3.174,22.579-3.174c6.31,0,12.727,0.988,19.249,2.965
				c6.519,1.977,12.553,4.701,18.104,8.167c1.665,1.042,3.364,2.222,5.099,3.539c1.734,1.318,3.33,2.652,4.786,4.006
				c1.457,1.352,2.653,2.669,3.59,3.953c0.935,1.284,1.404,2.378,1.404,3.278c0,0.833-0.208,1.682-0.624,2.548
				c-0.416,0.868-0.937,1.648-1.561,2.341l-3.122,3.331v-0.105c-1.04,1.111-2.117,2.255-3.226,3.434
				c-1.111,1.18-2.22,2.237-3.329,3.173c-1.111,0.937-2.118,1.718-3.019,2.342C560.881,311.036,560.12,311.349,559.494,311.349z"/>
			<path d="M705.161,360.043c0-1.387,0.381-2.496,1.145-3.329c0.762-0.833,1.908-1.249,3.434-1.249h16.96
				c1.18,0,2.288,0.416,3.33,1.249c1.04,0.833,1.561,1.942,1.561,3.329v47.758c0,0.833-0.209,1.63-0.625,2.394
				c-0.417,0.764-1.181,1.492-2.289,2.186c-0.069,0-0.103,0.019-0.103,0.052c0,0.035-0.038,0.052-0.104,0.052
				c-3.262,2.289-6.765,4.336-10.51,6.139c-3.746,1.806-7.665,3.313-11.758,4.525c-4.092,1.216-8.289,2.151-12.589,2.81
				c-4.302,0.659-8.604,0.99-12.902,0.99c-7.283,0-14.325-0.938-21.123-2.81c-6.798-1.873-13.126-4.543-18.987-8.012
				c-5.864-3.469-11.203-7.611-16.025-12.434c-4.82-4.821-8.965-10.162-12.432-16.024c-3.471-5.861-6.14-12.175-8.011-18.937
				c-1.875-6.764-2.812-13.821-2.812-21.175c0-7.283,0.938-14.306,2.812-21.068c1.871-6.765,4.541-13.093,8.011-18.989
				c3.467-5.896,7.612-11.273,12.432-16.129c4.822-4.854,10.18-9.016,16.076-12.484c5.896-3.469,12.227-6.158,18.989-8.065
				c6.764-1.906,13.821-2.86,21.175-2.86c4.923,0,9.831,0.434,14.723,1.3c4.89,0.868,9.624,2.169,14.202,3.902
				c1.734,0.694,3.797,1.561,6.19,2.602c2.394,1.04,4.666,2.185,6.814,3.432c2.15,1.251,3.972,2.535,5.463,3.85
				c1.491,1.32,2.238,2.603,2.238,3.852c0,0.555-0.312,1.439-0.937,2.653c-0.624,1.215-1.404,2.584-2.342,4.111
				c-0.936,1.525-1.993,3.103-3.174,4.733c-1.18,1.629-2.324,3.104-3.434,4.422c-1.11,1.318-2.117,2.411-3.017,3.278
				c-0.901,0.866-1.597,1.3-2.081,1.3c-0.417,0-0.921-0.086-1.509-0.261c-0.59-0.172-1.197-0.502-1.82-0.988
				c-4.37-3.052-9.298-5.48-14.775-7.283c-5.479-1.803-11.065-2.705-16.752-2.705c-7.423,0-14.221,1.387-20.393,4.162
				c-6.176,2.774-11.482,6.521-15.92,11.237c-4.439,4.718-7.908,10.18-10.405,16.389c-2.498,6.208-3.747,12.746-3.747,19.612
				c0,7.076,1.335,13.719,4.007,19.926c2.67,6.208,6.276,11.618,10.82,16.231c4.542,4.615,9.867,8.256,15.973,10.925
				c6.103,2.672,12.588,4.005,19.457,4.005c2.564,0,5.099-0.189,7.595-0.571c2.498-0.381,4.839-0.867,7.023-1.456
				c2.187-0.59,4.143-1.249,5.879-1.978c1.732-0.728,3.155-1.439,4.266-2.132V360.043z"/>
			<path d="M753.229,420.807c0.346-1.386,0.743-2.668,1.195-3.85c0.452-1.179,0.85-2.254,1.198-3.225L811.704,274.1
				c0.208-0.764,0.78-1.613,1.717-2.55c0.937-0.936,2.202-1.404,3.799-1.404h16.752c1.666,0,2.86,0.416,3.589,1.247
				c0.728,0.833,1.264,1.561,1.612,2.186l3.435,8.116l54.936,137.448c0,0.208,0.053,0.572,0.157,1.093
				c0.105,0.521,0.156,0.954,0.156,1.301c0,2.08-1.527,3.122-4.577,3.122H872.78c-1.526,0-2.705-0.314-3.536-0.938
				c-0.832-0.624-1.527-1.594-2.082-2.914l-1.873-4.785c-1.318-3.329-2.638-6.659-3.953-9.988c-1.32-3.33-2.604-6.695-3.851-10.093
				h-64.198c-1.804,4.856-3.555,9.415-5.253,13.682c-1.701,4.266-3.141,7.996-4.319,11.185c-0.973,2.567-2.774,3.852-5.41,3.852
				h-20.811c-1.318,0-2.375-0.243-3.172-0.73c-0.8-0.483-1.197-1.212-1.197-2.184C753.125,421.327,753.159,421.016,753.229,420.807z
				 M825.647,309.789c-3.745,9.572-7.476,19.493-11.186,29.757c-3.711,10.267-7.439,20.15-11.187,29.655h44.325L825.647,309.789z"/>
		</g>
	</g>
	<g>
		<g>
			<path d="M490.602,459.087c6.306,0,12.353,1.106,18.143,3.315v5.463c-5.918-2.665-11.967-4-18.143-4
				c-8.584,0-15.642,3.055-21.169,9.158c-5.528,5.974-8.292,13.374-8.292,22.206c0,8.83,2.763,16.198,8.292,22.108
				c5.593,6.167,12.648,9.253,21.169,9.253c5.332,0,10.502-0.972,15.509-2.917v-27.129h-17.069v-4.779h23.019v34.921
				c-6.764,3.122-13.916,4.683-21.458,4.683c-10.278,0-18.729-3.412-25.364-10.242c-6.699-6.893-10.046-15.511-10.046-25.85
				c0-10.274,3.348-18.86,10.046-25.753C472.001,462.565,480.457,459.087,490.602,459.087z"/>
			<path d="M548.113,478.4c5.219,0,9.654,1.855,13.308,5.561c3.641,3.643,5.462,8.063,5.462,13.267c0,2.929-1.028,5.269-3.082,7.024
				c-2.054,1.755-4.646,2.635-7.776,2.635h-25.527c0.259,5.628,1.891,10.257,4.89,13.88c3.196,3.883,7.47,5.824,12.819,5.824
				c5.216,0,10.434-0.942,15.652-2.83v5.268c-5.087,1.561-10.307,2.341-15.652,2.341c-7.763,0-13.698-2.535-17.808-7.608
				c-3.902-4.746-5.853-11.021-5.853-18.825c0-7.61,1.854-13.788,5.561-18.535C534.283,481.07,540.286,478.4,548.113,478.4z
				 M560.934,497.228c0-3.511-1.273-6.729-3.818-9.657c-2.544-2.927-5.513-4.389-8.905-4.389c-5.286,0-9.525,1.854-12.723,5.561
				c-2.872,3.447-4.533,7.9-4.989,13.362h25.542c1.305,0,2.446-0.47,3.424-1.413C560.443,499.749,560.934,498.595,560.934,497.228z"
				/>
			<path d="M603.269,485.423c-3.498-1.561-7.222-2.34-11.17-2.34c-7.51,0-11.267,2.829-11.267,8.487
				c0,3.058,2.167,5.692,6.502,7.902l12.227,6.242c4.357,2.991,6.536,6.766,6.536,11.315c0,4.877-1.984,8.618-5.95,11.217
				c-3.318,2.017-7.253,3.025-11.803,3.025c-5.334,0-9.854-0.684-13.56-2.048v-5.757c4.292,2.147,8.682,3.219,13.168,3.219
				c3.187,0,5.918-0.779,8.196-2.341c2.535-1.755,3.804-3.999,3.804-6.73c0-3.446-2.169-6.34-6.502-8.682
				c-2.005-1.104-4.012-2.146-6.018-3.121c-2.005-0.976-3.979-2.049-5.918-3.22c-2.311-1.3-3.994-2.844-5.05-4.633
				c-1.057-1.788-1.583-3.722-1.583-5.804c0-4.746,1.69-8.324,5.072-10.731c2.991-2.079,6.796-3.121,11.413-3.121
				c4.098,0,8.063,0.684,11.902,2.05V485.423z"/>
			<path d="M633.019,531.564c-1.692,0-3.253-0.277-4.683-0.828c-1.43-0.555-2.683-1.333-3.755-2.342
				c-1.073-1.008-1.919-2.194-2.537-3.56c-0.618-1.367-0.926-2.862-0.926-4.488v-35.408h-9.755v-4.781h9.755v-15.12h5.95v15.12
				h11.999v4.781h-11.999v35.326c0,1.688,0.586,3.195,1.756,4.525c1.171,1.331,2.567,1.994,4.194,1.994
				c2.275,0,4.746-0.682,7.414-2.046v4.974C638.156,530.947,635.685,531.564,633.019,531.564z"/>
			<path d="M650.091,455.185h5.949v5.95h-5.949V455.185z M656.04,480.256v49.456h-5.949v-49.456H656.04z"/>
			<path d="M715.544,505.422c0,7.87-1.985,14.081-5.95,18.633c-4.099,4.876-10.017,7.314-17.755,7.314
				c-7.674,0-13.657-2.633-17.947-7.901c-4.098-4.94-6.146-11.348-6.146-19.216c0-7.673,2.014-13.884,6.047-18.633
				c4.292-4.878,10.273-7.315,17.949-7.315c7.544,0,13.462,2.668,17.754,7.999C713.527,491.312,715.544,497.684,715.544,505.422z
				 M674.28,504.205c0,6.424,1.366,11.615,4.098,15.573c3.122,4.541,7.61,6.813,13.461,6.813c5.918,0,10.341-2.077,13.267-6.231
				c2.601-3.567,3.904-8.563,3.904-14.987c0-6.359-1.336-11.549-4.001-15.572c-3.059-4.477-7.479-6.717-13.267-6.717
				c-5.919,0-10.373,2.043-13.364,6.133C675.646,492.916,674.28,497.911,674.28,504.205z M696.717,455.185h5.95l-8.389,12.292h-4.78
				L696.717,455.185z"/>
			<path d="M725.785,529.809v-45.457c10.561-3.836,17.83-5.755,21.809-5.755c2.736,0,5.246,0.448,7.527,1.343
				c2.281,0.896,4.221,2.149,5.819,3.757c1.597,1.607,2.836,3.549,3.717,5.825c0.88,2.277,1.32,4.779,1.32,7.511v32.776h-5.952
				v-32.776c0-1.95-0.324-3.757-0.975-5.415c-0.651-1.656-1.546-3.104-2.683-4.338c-1.139-1.236-2.505-2.195-4.098-2.879
				c-1.595-0.683-3.364-1.023-5.315-1.023c-4.814,0-9.888,1.267-15.218,3.803v42.629H725.785z"/>
			<path d="M802.751,529.614l27.801-68.771h7.804l27.022,68.771h-6.342l-7.121-17.948h-35.508l-7.22,17.948H802.751z
				 M850.062,506.887l-15.607-39.703l-16.096,39.703H850.062z"/>
			<path d="M909.565,529.712c-4.618,1.17-9.072,1.754-13.364,1.754c-7.673,0-13.723-2.535-18.144-7.607
				c-4.229-4.812-6.34-11.086-6.34-18.826c0-7.674,2.111-13.981,6.34-18.926c4.486-5.135,10.536-7.706,18.144-7.706
				c4.421,0,8.878,0.62,13.364,1.855v5.07c-4.291-1.431-8.747-2.145-13.364-2.145c-5.723,0-10.275,2.173-13.657,6.521
				c-3.252,4.153-4.876,9.245-4.876,15.282c0,5.969,1.624,11.031,4.876,15.183c3.382,4.347,7.935,6.52,13.657,6.52
				c4.617,0,9.073-0.683,13.364-2.047V529.712z"/>
			<path d="M955.316,525.518c-5.92,3.968-12.747,5.948-20.486,5.948c-5.399,0-9.886-1.333-13.463-3.998
				c-3.445-2.729-5.17-6.243-5.17-10.536c0-4.746,2.049-8.55,6.145-11.412c4.616-3.25,11.35-4.877,20.195-4.877h6.827v-6.889
				c0-2.779-1.041-5.205-3.122-7.273c-2.08-2.137-4.682-3.202-7.804-3.202c-5.982,0-11.48,0.978-16.484,2.926v-5.267
				c5.069-1.624,10.926-2.438,17.558-2.438c4.421,0,8.161,1.462,11.22,4.39c3.054,2.863,4.585,6.471,4.585,10.828V525.518z
				 M949.364,505.422h-6.243c-7.089,0-12.455,1.23-16.098,3.689c-2.989,2.009-4.486,4.598-4.486,7.771
				c0,2.782,1.139,5.111,3.416,6.992c2.275,1.876,5.366,2.813,9.268,2.813c5.201,0,9.914-1.194,14.144-3.591V505.422z"/>
			<path d="M991.351,478.499c4.798,0,9.53,0.847,14.2,2.538v-25.756h5.949v71.895c-6.373,2.729-12.518,4.097-18.437,4.097
				c-7.738,0-13.98-2.568-18.729-7.707c-4.813-5.201-7.218-11.606-7.218-19.217c0-7.607,2.146-13.817,6.438-18.63
				C977.767,480.906,983.699,478.499,991.351,478.499z M991.935,483.278c-5.965,0-10.536,2.048-13.711,6.146
				c-3.049,3.837-4.572,8.812-4.572,14.924c0,6.115,1.816,11.284,5.448,15.512c3.758,4.551,8.621,6.826,14.586,6.826
				c3.373,0,7.326-0.844,11.865-2.535v-38.433C1001.336,484.093,996.799,483.278,991.935,483.278z"/>
			<path d="M1046.284,478.4c5.217,0,9.653,1.855,13.308,5.561c3.64,3.643,5.462,8.063,5.462,13.267c0,2.929-1.027,5.269-3.082,7.024
				c-2.054,1.755-4.645,2.635-7.774,2.635h-25.529c0.26,5.628,1.893,10.257,4.891,13.88c3.196,3.883,7.47,5.824,12.817,5.824
				c5.219,0,10.435-0.942,15.653-2.83v5.268c-5.088,1.561-10.306,2.341-15.653,2.341c-7.76,0-13.695-2.535-17.807-7.608
				c-3.899-4.746-5.853-11.021-5.853-18.825c0-7.61,1.855-13.788,5.563-18.535C1032.453,481.07,1038.455,478.4,1046.284,478.4z
				 M1059.104,497.228c0-3.511-1.273-6.729-3.816-9.657c-2.545-2.927-5.513-4.389-8.907-4.389c-5.282,0-9.524,1.854-12.723,5.561
				c-2.87,3.447-4.533,7.9-4.989,13.362h25.543c1.305,0,2.445-0.47,3.426-1.413C1058.615,499.749,1059.104,498.595,1059.104,497.228
				z M1051.2,455.088h5.952l-8.39,12.289h-4.779L1051.2,455.088z"/>
			<path d="M1106.513,529.712v-34.045c0-3.317-1.173-6.208-3.513-8.683c-2.342-2.47-5.139-3.706-8.389-3.706
				c-3.643,0-8.131,1.268-13.463,3.806v42.628h-5.949v-45.456l9.17-3.515c2.146-0.844,4.128-1.428,5.95-1.754
				c1.82-0.325,3.446-0.488,4.877-0.488c5.138,0,9.331,1.757,12.584,5.267c1.429-0.519,2.829-1.072,4.195-1.657
				c1.365-0.586,2.729-1.137,4.097-1.658c1.886-0.716,3.608-1.22,5.169-1.512c1.562-0.293,2.991-0.439,4.292-0.439
				c4.942,0,9.039,1.658,12.292,4.976c3.251,3.252,4.877,7.314,4.877,12.192v34.045h-5.949v-34.045c0-3.317-1.172-6.208-3.513-8.683
				c-2.277-2.47-5.04-3.706-8.291-3.706c-3.254,0-7.999,1.529-14.242,4.585c1.17,2.535,1.754,5.139,1.754,7.804v34.045H1106.513z"/>
			<path d="M1158.018,455.185h5.949v5.95h-5.949V455.185z M1163.967,480.256v49.456h-5.949v-49.456H1163.967z"/>
			<path d="M1213.616,529.712c-4.616,1.17-9.071,1.754-13.363,1.754c-7.675,0-13.722-2.535-18.144-7.607
				c-4.228-4.812-6.342-11.086-6.342-18.826c0-7.674,2.114-13.981,6.342-18.926c4.487-5.135,10.534-7.706,18.144-7.706
				c4.421,0,8.877,0.62,13.363,1.855v5.07c-4.291-1.431-8.747-2.145-13.363-2.145c-5.722,0-10.276,2.173-13.656,6.521
				c-3.253,4.153-4.877,9.245-4.877,15.282c0,5.969,1.624,11.031,4.877,15.183c3.38,4.347,7.935,6.52,13.656,6.52
				c4.616,0,9.072-0.683,13.363-2.047V529.712z"/>
			<path d="M1259.366,525.518c-5.919,3.968-12.747,5.948-20.486,5.948c-5.396,0-9.886-1.333-13.46-3.998
				c-3.449-2.729-5.173-6.243-5.173-10.536c0-4.746,2.05-8.55,6.147-11.412c4.616-3.25,11.347-4.877,20.192-4.877h6.829v-6.889
				c0-2.779-1.042-5.205-3.121-7.273c-2.084-2.137-4.682-3.202-7.805-3.202c-5.985,0-11.479,0.978-16.486,2.926v-5.267
				c5.072-1.624,10.925-2.438,17.559-2.438c4.423,0,8.163,1.462,11.219,4.39c3.056,2.863,4.585,6.471,4.585,10.828V525.518z
				 M1253.416,505.422h-6.242c-7.089,0-12.455,1.23-16.098,3.689c-2.991,2.009-4.486,4.598-4.486,7.771
				c0,2.782,1.137,5.111,3.412,6.992c2.279,1.876,5.366,2.813,9.27,2.813c5.202,0,9.916-1.194,14.145-3.591V505.422z"/>
		</g>
	</g>
</g>
</svg>
